<svg width="3797" height="3813" viewBox="0 0 3797 3813" fill="none" xmlns="http://www.w3.org/2000/svg">
<g id="Group 260">
<path id="b" d="M1444.7 2512.7C1441.1 2512.7 1437.87 2511.93 1435 2510.4C1432.2 2508.87 1430.03 2506.47 1428.5 2503.2H1428.3V2511H1413.2V2436.6H1428.9V2452.9C1428.9 2455.17 1428.83 2457.4 1428.7 2459.6C1428.63 2461.73 1428.53 2463.6 1428.4 2465.2H1428.7C1430.5 2462.47 1432.67 2460.3 1435.2 2458.7C1437.73 2457.1 1440.87 2456.3 1444.6 2456.3C1448.07 2456.3 1451.2 2457 1454 2458.4C1456.8 2459.8 1459.2 2461.77 1461.2 2464.3C1463.2 2466.77 1464.73 2469.73 1465.8 2473.2C1466.93 2476.6 1467.5 2480.33 1467.5 2484.4C1467.5 2488.8 1466.97 2492.77 1465.9 2496.3C1464.83 2499.77 1463.3 2502.73 1461.3 2505.2C1459.3 2507.6 1456.9 2509.47 1454.1 2510.8C1451.3 2512.07 1448.17 2512.7 1444.7 2512.7ZM1440.5 2500.1C1444.17 2500.1 1446.9 2498.67 1448.7 2495.8C1450.57 2492.93 1451.5 2489.1 1451.5 2484.3C1451.5 2479.5 1450.57 2475.63 1448.7 2472.7C1446.9 2469.7 1444.13 2468.2 1440.4 2468.2C1438.33 2468.2 1436.53 2468.63 1435 2469.5C1433.53 2470.3 1432.3 2471.43 1431.3 2472.9C1430.3 2474.3 1429.57 2476 1429.1 2478C1428.63 2480 1428.4 2482.13 1428.4 2484.4C1428.4 2489.07 1429.47 2492.87 1431.6 2495.8C1433.73 2498.67 1436.7 2500.1 1440.5 2500.1Z" fill="white"/>
<path id="c" d="M2489.7 2512.7C2485.43 2512.7 2481.57 2512 2478.1 2510.6C2474.7 2509.13 2471.77 2507.13 2469.3 2504.6C2466.9 2502.07 2465.03 2499.1 2463.7 2495.7C2462.37 2492.23 2461.7 2488.5 2461.7 2484.5C2461.7 2480.5 2462.33 2476.8 2463.6 2473.4C2464.93 2469.93 2466.8 2466.93 2469.2 2464.4C2471.6 2461.87 2474.5 2459.9 2477.9 2458.5C2481.3 2457.03 2485.1 2456.3 2489.3 2456.3C2492.83 2456.3 2496.03 2456.8 2498.9 2457.8C2501.77 2458.73 2504.23 2460.07 2506.3 2461.8C2508.43 2463.53 2510.17 2465.63 2511.5 2468.1C2512.83 2470.5 2513.73 2473.13 2514.2 2476H2499C2498.47 2473.53 2497.4 2471.6 2495.8 2470.2C2494.2 2468.73 2492.1 2468 2489.5 2468C2485.5 2468 2482.5 2469.5 2480.5 2472.5C2478.57 2475.5 2477.6 2479.5 2477.6 2484.5C2477.6 2489.37 2478.57 2493.3 2480.5 2496.3C2482.5 2499.3 2485.5 2500.8 2489.5 2500.8C2492.43 2500.8 2494.73 2499.97 2496.4 2498.3C2498.13 2496.63 2499.17 2494.27 2499.5 2491.2H2514.6C2514.47 2494.2 2513.77 2497.03 2512.5 2499.7C2511.3 2502.3 2509.63 2504.57 2507.5 2506.5C2505.37 2508.43 2502.77 2509.93 2499.7 2511C2496.7 2512.13 2493.37 2512.7 2489.7 2512.7Z" fill="white"/>
<path id="c_2" d="M2495.16 2458.49C2494.6 2458.49 2494.09 2458.39 2493.63 2458.18C2493.18 2457.98 2492.8 2457.7 2492.48 2457.34C2492.17 2456.98 2491.92 2456.56 2491.74 2456.08C2491.57 2455.6 2491.49 2455.08 2491.49 2454.53C2491.49 2453.99 2491.57 2453.48 2491.74 2453C2491.92 2452.52 2492.17 2452.1 2492.48 2451.74C2492.8 2451.38 2493.18 2451.09 2493.63 2450.89C2494.09 2450.68 2494.6 2450.58 2495.16 2450.58C2496.06 2450.58 2496.8 2450.82 2497.36 2451.3C2497.93 2451.76 2498.28 2452.4 2498.41 2453.21H2497.1C2497.01 2452.72 2496.8 2452.33 2496.47 2452.05C2496.15 2451.77 2495.71 2451.63 2495.16 2451.63C2494.78 2451.63 2494.43 2451.71 2494.14 2451.86C2493.85 2452 2493.6 2452.21 2493.41 2452.47C2493.21 2452.73 2493.06 2453.04 2492.96 2453.4C2492.87 2453.75 2492.82 2454.13 2492.82 2454.53C2492.82 2454.94 2492.87 2455.32 2492.96 2455.68C2493.06 2456.02 2493.21 2456.33 2493.41 2456.59C2493.6 2456.85 2493.85 2457.05 2494.14 2457.2C2494.43 2457.35 2494.78 2457.43 2495.16 2457.43C2495.75 2457.43 2496.21 2457.27 2496.54 2456.95C2496.89 2456.62 2497.09 2456.18 2497.13 2455.62H2498.42C2498.34 2456.53 2498.01 2457.23 2497.44 2457.74C2496.88 2458.24 2496.12 2458.49 2495.16 2458.49Z" fill="#E4E4E4"/>
<g id="Ellipse 27">
<path id="Vector" d="M1467.27 3212.08C2000.35 3212.08 2432.49 2812.94 2432.49 2320.58C2432.49 1828.21 2000.35 1429.07 1467.27 1429.07C934.2 1429.07 502.058 1828.21 502.058 2320.58C502.058 2812.94 934.2 3212.08 1467.27 3212.08Z" stroke="#9F9797" stroke-width="9" stroke-dasharray="18 18"/>
</g>
<g id="Group 88">
<g id="Group 87">
<g id="Group 63">
<g id="Group 62">
<g id="Group 61" opacity="0.42">
<g id="Group 60" opacity="0.42">
<g id="Group 59" opacity="0.42">
<g id="Group 58" opacity="0.42">
<g id="Group 57" opacity="0.42">
<path id="Rectangle 47" opacity="0.42" d="M2919.03 927.184L1936.88 930.142L1939.83 1916.3L2921.98 1913.34L2919.03 927.184Z" stroke="#83C6C5" stroke-width="20"/>
</g>
</g>
<path id="Rectangle 49" opacity="0.42" d="M2916.45 930.123L1939.47 932.726L1942.06 1913.7L2919.04 1911.09L2916.45 930.123Z" stroke="#83C6C5" stroke-width="20" stroke-linecap="round" stroke-linejoin="round"/>
</g>
</g>
</g>
</g>
</g>
<g id="Group 72">
<g id="Group 71">
<path id="Path 69" d="M1454.85 1424.5L1942.04 932.726L2919.01 930.136L2431.82 1421.91L1454.85 1424.5Z" stroke="#83C6C5" stroke-width="20" stroke-linecap="round" stroke-linejoin="round"/>
<g id="Group 70" opacity="0.42">
<g id="Group 69" opacity="0.42">
<g id="Group 68" opacity="0.42">
<g id="Group 67" opacity="0.42">
<g id="Group 66" opacity="0.42">
<path id="Rectangle 53" opacity="0.42" d="M1944.24 927.644L1450.59 929.131L1454.99 2403.18L1948.64 2401.69L1944.24 927.644Z" stroke="#83C6C5" stroke-width="20"/>
</g>
</g>
<path id="Path 71" opacity="0.42" d="M1457.05 2401.88L1944.24 1910.1L1941.66 929.124L1454.46 1420.9L1457.05 2401.88Z" stroke="#83C6C5" stroke-width="20" stroke-miterlimit="10"/>
</g>
</g>
</g>
</g>
</g>
<g id="Group 86">
<g id="Group 85">
<path id="Path 73" d="M2429.24 1425.71L2431.82 2406.69L2919.02 1914.9L2916.44 933.933L2429.24 1425.71Z" stroke="#83C6C5" stroke-width="20" stroke-linecap="round" stroke-linejoin="round"/>
<g id="Group 79" opacity="0.47">
<g id="Group 78" opacity="0.47">
<g id="Group 77" opacity="0.47">
<g id="Group 76" opacity="0.47">
<g id="Group 75" opacity="0.47">
<path id="Rectangle 57" opacity="0.47" d="M2919.01 1906.23L1453.55 1910.11L1454.85 2408.36L2920.32 2404.48L2919.01 1906.23Z" stroke="#83C6C5" stroke-width="20"/>
</g>
</g>
<path id="Path 75" opacity="0.47" d="M2919.02 1910.12L1942.04 1912.71L1454.85 2404.47L2431.83 2401.88L2919.02 1910.12Z" stroke="#83C6C5" stroke-width="20" stroke-linecap="round" stroke-linejoin="round"/>
</g>
</g>
</g>
<g id="Group 84" opacity="0.92">
<g id="Group 83" opacity="0.92">
<g id="Group 82" opacity="0.92">
<g id="Group 81" opacity="0.92">
<g id="Group 80" opacity="0.92">
<path id="Rectangle 59" opacity="0.92" d="M2434.03 1421.56L1451.89 1424.52L1454.84 2410.67L2436.98 2407.71L2434.03 1421.56Z" stroke="#83C6C5" stroke-width="20"/>
</g>
</g>
<path id="Rectangle 61" opacity="0.92" d="M2431.45 1424.49L1454.47 1427.1L1457.07 2408.07L2434.04 2405.47L2431.45 1424.49Z" stroke="#83C6C5" stroke-width="20" stroke-linecap="round" stroke-linejoin="round"/>
</g>
</g>
</g>
</g>
</g>
</g>
</g>
<path id="a" d="M1431.3 1375C1430.9 1374.4 1430.53 1373.57 1430.2 1372.5C1429.87 1371.37 1429.63 1370.03 1429.5 1368.5H1429.3C1427.57 1370.97 1425.47 1372.9 1423 1374.3C1420.6 1375.7 1417.33 1376.4 1413.2 1376.4C1410.6 1376.4 1408.17 1376.03 1405.9 1375.3C1403.7 1374.63 1401.77 1373.63 1400.1 1372.3C1398.5 1370.97 1397.23 1369.3 1396.3 1367.3C1395.43 1365.23 1395 1362.9 1395 1360.3C1395 1357.37 1395.53 1354.93 1396.6 1353C1397.73 1351.07 1399.23 1349.5 1401.1 1348.3C1402.97 1347.1 1405.17 1346.2 1407.7 1345.6C1410.23 1344.93 1412.97 1344.43 1415.9 1344.1C1420.63 1343.43 1424.03 1342.63 1426.1 1341.7C1428.23 1340.77 1429.3 1339.3 1429.3 1337.3C1429.3 1335.37 1428.67 1333.83 1427.4 1332.7C1426.13 1331.5 1424.13 1330.9 1421.4 1330.9C1418.4 1330.9 1416.13 1331.53 1414.6 1332.8C1413.13 1334.07 1412.3 1335.77 1412.1 1337.9H1397.6C1397.67 1335.63 1398.2 1333.43 1399.2 1331.3C1400.2 1329.17 1401.67 1327.3 1403.6 1325.7C1405.53 1324.03 1407.97 1322.73 1410.9 1321.8C1413.83 1320.8 1417.27 1320.3 1421.2 1320.3C1424.6 1320.3 1427.53 1320.57 1430 1321.1C1432.47 1321.57 1434.63 1322.37 1436.5 1323.5C1439.3 1325.1 1441.33 1327.27 1442.6 1330C1443.93 1332.67 1444.6 1335.8 1444.6 1339.4V1366.7C1444.6 1370.77 1445.27 1373.23 1446.6 1374.1V1375H1431.3ZM1418.1 1366.1C1421.63 1366.1 1424.43 1365.13 1426.5 1363.2C1428.63 1361.27 1429.7 1358.83 1429.7 1355.9V1349C1428.57 1349.73 1427.17 1350.33 1425.5 1350.8C1423.9 1351.2 1422.23 1351.6 1420.5 1352C1417.03 1352.73 1414.47 1353.63 1412.8 1354.7C1411.13 1355.77 1410.3 1357.47 1410.3 1359.8C1410.3 1362.13 1411.07 1363.77 1412.6 1364.7C1414.13 1365.63 1415.97 1366.1 1418.1 1366.1Z" fill="white"/>
<path id="Ellipse 56" d="M1898.5 3812.39C2947.01 3812.39 3797 2958.96 3797 1906.19C3797 853.432 2947.01 0 1898.5 0C849.987 0 0 853.432 0 1906.19C0 2958.96 849.987 3812.39 1898.5 3812.39Z" fill="url(#paint0_radial_472_108)"/>
</g>
<defs>
<radialGradient id="paint0_radial_472_108" cx="0" cy="0" r="1" gradientUnits="userSpaceOnUse" gradientTransform="translate(1898.5 1906.19) scale(1898.5 1906.19)">
<stop stop-color="#83C6C5" stop-opacity="0.341"/>
<stop offset="1" stop-color="#6B4964" stop-opacity="0"/>
</radialGradient>
</defs>
</svg>
