<svg width="3457" height="3385" viewBox="0 0 3457 3385" fill="none" xmlns="http://www.w3.org/2000/svg">
<g id="Group 261">
<path id="Line51" opacity="0.684" d="M1729 0V3385" stroke="#707070" stroke-width="11" stroke-dasharray="9 9"/>
<path id="Line52" opacity="0.684" d="M0 1693H3457" stroke="#707070" stroke-width="11" stroke-dasharray="9 9"/>
<path id="Ellipse 60" d="M1728.5 3378C2659.38 3378 3414 2623.38 3414 1692.5C3414 761.624 2659.38 7 1728.5 7C797.624 7 43 761.624 43 1692.5C43 2623.38 797.624 3378 1728.5 3378Z" fill="url(#paint0_radial_471_15)"/>
<g id="Group 260">
<path id="Ellipse 18" d="M1728.26 2199.52C1999.27 2199.52 2218.97 1972.44 2218.97 1692.31C2218.97 1412.19 1999.27 1185.1 1728.26 1185.1C1457.24 1185.1 1237.54 1412.19 1237.54 1692.31C1237.54 1972.44 1457.24 2199.52 1728.26 2199.52Z" stroke="#B67A9E" stroke-width="15" stroke-miterlimit="10"/>
<path id="Ellipse 19" opacity="0.4" d="M1728.26 1692.31C1999.27 1692.31 2218.97 1465.23 2218.97 1185.1C2218.97 904.975 1999.27 677.889 1728.26 677.889C1457.24 677.889 1237.54 904.975 1237.54 1185.1C1237.54 1465.23 1457.24 1692.31 1728.26 1692.31Z" stroke="#B67A9E" stroke-width="15" stroke-miterlimit="10"/>
<path id="Ellipse 20" opacity="0.4" d="M1728.25 1692.31C1919.89 1500.67 1914.67 1184.73 1716.61 986.653C1518.54 788.574 1202.62 783.36 1010.99 975.007C819.351 1166.65 824.565 1482.59 1022.63 1680.67C1220.7 1878.75 1536.62 1883.96 1728.25 1692.31Z" stroke="#B67A9E" stroke-width="15" stroke-miterlimit="10"/>
<path id="Ellipse 21" opacity="0.4" d="M1221.07 2183.06C1501.18 2183.06 1728.25 1963.35 1728.25 1692.32C1728.25 1421.29 1501.18 1201.58 1221.07 1201.58C940.958 1201.58 713.885 1421.29 713.885 1692.32C713.885 1963.35 940.958 2183.06 1221.07 2183.06Z" stroke="#B67A9E" stroke-width="15" stroke-miterlimit="10"/>
<path id="Ellipse 22" opacity="0.4" d="M1716.61 2397.99C1914.67 2199.91 1919.89 1883.97 1728.25 1692.33C1536.62 1500.68 1220.7 1505.9 1022.63 1703.97C824.565 1902.05 819.351 2217.99 1010.99 2409.63C1202.62 2601.28 1518.54 2596.07 1716.61 2397.99Z" stroke="#B67A9E" stroke-width="15" stroke-miterlimit="10"/>
<path id="Ellipse 23" opacity="0.4" d="M1728.26 2706.75C1999.27 2706.75 2218.97 2479.66 2218.97 2199.53C2218.97 1919.41 1999.27 1692.32 1728.26 1692.32C1457.24 1692.32 1237.54 1919.41 1237.54 2199.53C1237.54 2479.66 1457.24 2706.75 1728.26 2706.75Z" stroke="#B67A9E" stroke-width="15" stroke-miterlimit="10"/>
<path id="Ellipse 24" opacity="0.4" d="M2445.52 2409.62C2637.15 2217.98 2631.94 1902.04 2433.87 1703.96C2235.81 1505.88 1919.89 1500.67 1728.25 1692.32C1536.62 1883.96 1541.83 2199.9 1739.9 2397.98C1937.97 2596.06 2253.88 2601.27 2445.52 2409.62Z" stroke="#B67A9E" stroke-width="15" stroke-miterlimit="10"/>
<path id="Ellipse 25" opacity="0.4" d="M2235.43 2183.06C2515.54 2183.06 2742.61 1963.35 2742.61 1692.32C2742.61 1421.29 2515.54 1201.58 2235.43 1201.58C1955.32 1201.58 1728.25 1421.29 1728.25 1692.32C1728.25 1963.35 1955.32 2183.06 2235.43 2183.06Z" stroke="#B67A9E" stroke-width="15" stroke-miterlimit="10"/>
<path id="Ellipse 26" opacity="0.4" d="M2433.87 1680.67C2631.94 1482.59 2637.15 1166.66 2445.52 975.011C2253.88 783.364 1937.97 788.578 1739.9 986.657C1541.83 1184.74 1536.62 1500.67 1728.25 1692.32C1919.89 1883.96 2235.81 1878.75 2433.87 1680.67Z" stroke="#B67A9E" stroke-width="15" stroke-miterlimit="10"/>
</g>
</g>
<defs>
<radialGradient id="paint0_radial_471_15" cx="0" cy="0" r="1" gradientUnits="userSpaceOnUse" gradientTransform="translate(1728.5 1692.5) scale(1685.5)">
<stop stop-color="#B67A9E" stop-opacity="0.341"/>
<stop offset="1" stop-color="#6B4964" stop-opacity="0"/>
</radialGradient>
</defs>
</svg>
