<svg width="1786" height="745" viewBox="0 0 1786 745" fill="none" xmlns="http://www.w3.org/2000/svg">
<g id="Group 232">
<g id="Group 217">
<g id="Group" filter="url(#filter0_d_83_3396)">
<g id="Rectangle 68">
<path id="Vector" d="M1778.16 8.02344H8.02344V531.019H1778.16V8.02344Z" stroke="white" stroke-width="7"/>
</g>
</g>
<g id="Group 96">
<path id="Path 76" d="M954.273 274.547H1576.98L1441.91 376" stroke="white" stroke-width="7" stroke-linejoin="round"/>
<path id="Path 77" d="M1576.97 274.538L1467.3 157.918" stroke="white" stroke-width="7"/>
</g>
</g>
<path id="FORM" d="M259.45 229.4H341.35V251.15H284.95V275.45H332.05V296.3H284.95V341H259.45V229.4ZM403.75 343.7C395.25 343.7 387.6 342.25 380.8 339.35C374 336.45 368.2 332.4 363.4 327.2C358.6 322 354.9 315.85 352.3 308.75C349.8 301.65 348.55 293.95 348.55 285.65C348.55 277.25 349.8 269.5 352.3 262.4C354.9 255.3 358.6 249.2 363.4 244.1C368.2 238.9 374 234.85 380.8 231.95C387.6 228.95 395.25 227.45 403.75 227.45C412.15 227.45 419.75 228.95 426.55 231.95C433.35 234.85 439.15 238.9 443.95 244.1C448.75 249.2 452.4 255.3 454.9 262.4C457.5 269.5 458.8 277.25 458.8 285.65C458.8 293.95 457.5 301.65 454.9 308.75C452.4 315.85 448.75 322 443.95 327.2C439.15 332.4 433.35 336.45 426.55 339.35C419.75 342.25 412.15 343.7 403.75 343.7ZM403.9 322.7C408.7 322.7 412.9 321.75 416.5 319.85C420.1 317.95 423.1 315.35 425.5 312.05C427.9 308.75 429.7 304.85 430.9 300.35C432.1 295.85 432.7 290.95 432.7 285.65C432.7 280.35 432.1 275.45 430.9 270.95C429.7 266.35 427.9 262.35 425.5 258.95C423.1 255.55 420.1 252.9 416.5 251C412.9 249.1 408.7 248.15 403.9 248.15C399.1 248.15 394.85 249.1 391.15 251C387.55 252.9 384.5 255.55 382 258.95C379.6 262.35 377.75 266.35 376.45 270.95C375.25 275.45 374.65 280.35 374.65 285.65C374.65 290.95 375.25 295.85 376.45 300.35C377.75 304.85 379.6 308.75 382 312.05C384.5 315.35 387.55 317.95 391.15 319.85C394.85 321.75 399.1 322.7 403.9 322.7ZM473.024 229.4H526.124C531.524 229.4 536.524 230.1 541.124 231.5C545.824 232.9 549.874 235 553.274 237.8C556.674 240.5 559.324 243.85 561.224 247.85C563.224 251.75 564.224 256.25 564.224 261.35C564.224 267.95 562.574 273.55 559.274 278.15C555.974 282.75 550.724 286.2 543.524 288.5V288.95C549.124 290.65 553.224 293.2 555.824 296.6C558.524 299.9 560.274 304.55 561.074 310.55C561.574 314.35 561.924 317.95 562.124 321.35C562.424 324.65 562.674 327.65 562.874 330.35C563.174 332.95 563.524 335.1 563.924 336.8C564.324 338.4 564.974 339.4 565.874 339.8V341H540.674C539.874 340.6 539.274 339.6 538.874 338C538.574 336.4 538.274 334.45 537.974 332.15C537.774 329.75 537.574 327.1 537.374 324.2C537.174 321.3 536.924 318.3 536.624 315.2C535.924 309.6 534.074 305.4 531.074 302.6C528.174 299.8 523.624 298.4 517.424 298.4H498.524V341H473.024V229.4ZM498.524 279.5H521.174C526.874 279.5 531.224 278.2 534.224 275.6C537.224 272.9 538.724 269.3 538.724 264.8C538.724 260.2 537.324 256.55 534.524 253.85C531.824 251.05 527.624 249.65 521.924 249.65H498.524V279.5ZM580.251 229.4H614.601L628.551 275.9C629.551 279.4 630.551 283.4 631.551 287.9C632.551 292.4 633.451 296.75 634.251 300.95C635.251 305.75 636.151 310.65 636.951 315.65H637.401C638.201 310.65 639.051 305.75 639.951 300.95C640.751 296.75 641.601 292.4 642.501 287.9C643.501 283.4 644.551 279.4 645.651 275.9L659.301 229.4H694.101V341H670.551V291.05C670.551 287.55 670.651 283.5 670.851 278.9C671.051 274.3 671.251 269.9 671.451 265.7C671.751 260.9 672.051 255.95 672.351 250.85H672.051C671.151 255.45 670.201 260 669.201 264.5C668.401 268.3 667.451 272.35 666.351 276.65C665.351 280.85 664.351 284.6 663.351 287.9L647.451 341H626.451L610.401 287.9C609.401 284.6 608.351 280.85 607.251 276.65C606.251 272.35 605.351 268.3 604.551 264.5C603.551 260 602.601 255.45 601.701 250.85H601.401C601.701 255.95 602.001 260.9 602.301 265.7C602.501 269.9 602.701 274.3 602.901 278.9C603.101 283.5 603.201 287.55 603.201 291.05V341H580.251V229.4Z" fill="#E4E4E4"/>
<path id="MAAS WITH US" d="M1107.93 627.04H1119.81L1133.76 663.4C1134.42 665.26 1135.14 667.39 1135.92 669.79C1136.76 672.19 1137.51 674.47 1138.17 676.63C1138.95 679.15 1139.73 681.73 1140.51 684.37H1140.69C1141.53 681.73 1142.34 679.15 1143.12 676.63C1143.78 674.47 1144.5 672.19 1145.28 669.79C1146.12 667.39 1146.87 665.26 1147.53 663.4L1161.21 627.04H1173.45V694H1164.63V653.5C1164.63 652 1164.63 650.29 1164.63 648.37C1164.69 646.39 1164.78 644.5 1164.9 642.7C1164.96 640.66 1165.05 638.53 1165.17 636.31H1164.99L1163.37 641.98C1162.89 643.54 1162.38 645.22 1161.84 647.02C1161.3 648.76 1160.79 650.29 1160.31 651.61L1144.02 694H1136.82L1120.53 651.61C1120.05 650.29 1119.54 648.76 1119 647.02C1118.46 645.22 1117.95 643.54 1117.47 641.98L1115.85 636.31H1115.67C1115.73 638.53 1115.82 640.66 1115.94 642.7C1116 644.5 1116.06 646.39 1116.12 648.37C1116.18 650.29 1116.21 652 1116.21 653.5V694H1107.93V627.04ZM1206.47 627.04H1216.73L1241.39 694H1231.31L1224.65 674.47H1198.28L1191.44 694H1181.99L1206.47 627.04ZM1200.8 667.27H1222.22L1215.83 648.55C1215.23 646.93 1214.69 645.28 1214.21 643.6C1213.73 641.92 1213.31 640.39 1212.95 639.01C1212.53 637.45 1212.14 635.89 1211.78 634.33H1211.51C1211.09 635.89 1210.67 637.48 1210.25 639.1C1209.83 640.48 1209.38 642.01 1208.9 643.69C1208.42 645.37 1207.91 646.99 1207.37 648.55L1200.8 667.27ZM1269.31 627.04H1279.57L1304.23 694H1294.15L1287.49 674.47H1261.12L1254.28 694H1244.83L1269.31 627.04ZM1263.64 667.27H1285.06L1278.67 648.55C1278.07 646.93 1277.53 645.28 1277.05 643.6C1276.57 641.92 1276.15 640.39 1275.79 639.01C1275.37 637.45 1274.98 635.89 1274.62 634.33H1274.35C1273.93 635.89 1273.51 637.48 1273.09 639.1C1272.67 640.48 1272.22 642.01 1271.74 643.69C1271.26 645.37 1270.75 646.99 1270.21 648.55L1263.64 667.27ZM1336.58 695.35C1331.9 695.35 1327.79 694.75 1324.25 693.55C1320.77 692.35 1317.83 690.73 1315.43 688.69C1313.09 686.59 1311.29 684.13 1310.03 681.31C1308.77 678.49 1308.05 675.49 1307.87 672.31H1316.96C1317.5 677.41 1319.42 681.31 1322.72 684.01C1326.02 686.65 1330.73 687.97 1336.85 687.97C1339.07 687.97 1341.11 687.73 1342.97 687.25C1344.89 686.71 1346.51 685.96 1347.83 685C1349.21 683.98 1350.29 682.72 1351.07 681.22C1351.85 679.72 1352.24 677.95 1352.24 675.91C1352.24 673.75 1351.76 671.95 1350.8 670.51C1349.9 669.07 1348.58 667.87 1346.84 666.91C1345.16 665.95 1343.12 665.14 1340.72 664.48C1338.38 663.82 1335.74 663.16 1332.8 662.5C1329.8 661.9 1326.95 661.18 1324.25 660.34C1321.61 659.5 1319.27 658.39 1317.23 657.01C1315.19 655.57 1313.57 653.8 1312.37 651.7C1311.23 649.6 1310.66 646.93 1310.66 643.69C1310.66 640.87 1311.23 638.35 1312.37 636.13C1313.51 633.91 1315.1 632.05 1317.14 630.55C1319.18 628.99 1321.61 627.82 1324.43 627.04C1327.31 626.2 1330.46 625.78 1333.88 625.78C1338.02 625.78 1341.59 626.29 1344.59 627.31C1347.59 628.27 1350.11 629.62 1352.15 631.36C1354.25 633.1 1355.87 635.17 1357.01 637.57C1358.15 639.97 1358.93 642.61 1359.35 645.49H1350.44C1349.84 641.41 1348.13 638.32 1345.31 636.22C1342.49 634.06 1338.71 632.98 1333.97 632.98C1329.53 632.98 1325.99 633.85 1323.35 635.59C1320.71 637.33 1319.39 639.88 1319.39 643.24C1319.39 645.04 1319.81 646.57 1320.65 647.83C1321.55 649.03 1322.75 650.05 1324.25 650.89C1325.81 651.73 1327.64 652.45 1329.74 653.05C1331.9 653.59 1334.24 654.13 1336.76 654.67C1340 655.33 1343.09 656.08 1346.03 656.92C1349.03 657.76 1351.67 658.96 1353.95 660.52C1356.29 662.02 1358.12 663.97 1359.44 666.37C1360.82 668.77 1361.51 671.83 1361.51 675.55C1361.51 678.73 1360.88 681.55 1359.62 684.01C1358.42 686.47 1356.71 688.54 1354.49 690.22C1352.27 691.9 1349.63 693.16 1346.57 694C1343.51 694.9 1340.18 695.35 1336.58 695.35ZM1391.08 627.04H1400.71L1410.34 666.46C1410.76 668.14 1411.15 670 1411.51 672.04C1411.87 674.08 1412.2 676 1412.5 677.8C1412.8 679.9 1413.13 682.03 1413.49 684.19H1413.67C1414.03 681.97 1414.39 679.81 1414.75 677.71C1415.05 675.91 1415.41 673.99 1415.83 671.95C1416.25 669.91 1416.7 668.05 1417.18 666.37L1427.98 627.04H1437.7L1448.14 666.37C1448.56 668.05 1448.98 669.91 1449.4 671.95C1449.88 673.99 1450.27 675.91 1450.57 677.71C1450.93 679.81 1451.29 681.97 1451.65 684.19H1451.83C1452.19 682.03 1452.55 679.9 1452.91 677.8C1453.21 676 1453.54 674.08 1453.9 672.04C1454.32 670 1454.74 668.14 1455.16 666.46L1465.15 627.04H1474.6L1455.97 694H1447.06L1436.08 651.16C1435.66 649.66 1435.27 647.95 1434.91 646.03C1434.55 644.11 1434.22 642.28 1433.92 640.54C1433.56 638.56 1433.23 636.52 1432.93 634.42H1432.75C1432.39 636.52 1432.03 638.56 1431.67 640.54C1431.37 642.28 1431.01 644.11 1430.59 646.03C1430.23 647.95 1429.87 649.63 1429.51 651.07L1417.72 694H1408.54L1391.08 627.04ZM1483.4 627.04H1492.58V694H1483.4V627.04ZM1502.46 627.04H1555.74V635.14H1533.69V694H1524.42V635.14H1502.46V627.04ZM1565.49 627.04H1574.67V655.21H1609.23V627.04H1618.5V694H1609.23V662.68H1574.67V694H1565.49V627.04ZM1681.03 694.99C1677.25 694.99 1673.77 694.57 1670.59 693.73C1667.47 692.83 1664.77 691.48 1662.49 689.68C1660.21 687.82 1658.41 685.45 1657.09 682.57C1655.83 679.69 1655.2 676.24 1655.2 672.22V627.04H1664.38V671.41C1664.38 676.93 1665.82 680.95 1668.7 683.47C1671.64 685.93 1675.81 687.16 1681.21 687.16C1686.43 687.16 1690.48 685.93 1693.36 683.47C1696.24 680.95 1697.68 676.93 1697.68 671.41V627.04H1706.86V672.22C1706.86 676.24 1706.2 679.69 1704.88 682.57C1703.56 685.45 1701.73 687.82 1699.39 689.68C1697.11 691.48 1694.38 692.83 1691.2 693.73C1688.08 694.57 1684.69 694.99 1681.03 694.99ZM1745.1 695.35C1740.42 695.35 1736.31 694.75 1732.77 693.55C1729.29 692.35 1726.35 690.73 1723.95 688.69C1721.61 686.59 1719.81 684.13 1718.55 681.31C1717.29 678.49 1716.57 675.49 1716.39 672.31H1725.48C1726.02 677.41 1727.94 681.31 1731.24 684.01C1734.54 686.65 1739.25 687.97 1745.37 687.97C1747.59 687.97 1749.63 687.73 1751.49 687.25C1753.41 686.71 1755.03 685.96 1756.35 685C1757.73 683.98 1758.81 682.72 1759.59 681.22C1760.37 679.72 1760.76 677.95 1760.76 675.91C1760.76 673.75 1760.28 671.95 1759.32 670.51C1758.42 669.07 1757.1 667.87 1755.36 666.91C1753.68 665.95 1751.64 665.14 1749.24 664.48C1746.9 663.82 1744.26 663.16 1741.32 662.5C1738.32 661.9 1735.47 661.18 1732.77 660.34C1730.13 659.5 1727.79 658.39 1725.75 657.01C1723.71 655.57 1722.09 653.8 1720.89 651.7C1719.75 649.6 1719.18 646.93 1719.18 643.69C1719.18 640.87 1719.75 638.35 1720.89 636.13C1722.03 633.91 1723.62 632.05 1725.66 630.55C1727.7 628.99 1730.13 627.82 1732.95 627.04C1735.83 626.2 1738.98 625.78 1742.4 625.78C1746.54 625.78 1750.11 626.29 1753.11 627.31C1756.11 628.27 1758.63 629.62 1760.67 631.36C1762.77 633.1 1764.39 635.17 1765.53 637.57C1766.67 639.97 1767.45 642.61 1767.87 645.49H1758.96C1758.36 641.41 1756.65 638.32 1753.83 636.22C1751.01 634.06 1747.23 632.98 1742.49 632.98C1738.05 632.98 1734.51 633.85 1731.87 635.59C1729.23 637.33 1727.91 639.88 1727.91 643.24C1727.91 645.04 1728.33 646.57 1729.17 647.83C1730.07 649.03 1731.27 650.05 1732.77 650.89C1734.33 651.73 1736.16 652.45 1738.26 653.05C1740.42 653.59 1742.76 654.13 1745.28 654.67C1748.52 655.33 1751.61 656.08 1754.55 656.92C1757.55 657.76 1760.19 658.96 1762.47 660.52C1764.81 662.02 1766.64 663.97 1767.96 666.37C1769.34 668.77 1770.03 671.83 1770.03 675.55C1770.03 678.73 1769.4 681.55 1768.14 684.01C1766.94 686.47 1765.23 688.54 1763.01 690.22C1760.79 691.9 1758.15 693.16 1755.09 694C1752.03 694.9 1748.7 695.35 1745.1 695.35Z" fill="white"/>
</g>
<g id="inner_glow_filter" filter="url(#filter_inner_glow)">
<path id="Rectangle 68_2" d="M1782 4H8V531.906H1782V4Z" fill="white" fill-opacity="0.04"/>
</g>
<defs>
<filter id="filter0_d_83_3396" x="0.523438" y="0.523438" width="1785.14" height="537.996" filterUnits="userSpaceOnUse" color-interpolation-filters="sRGB">
<feFlood flood-opacity="0" result="BackgroundImageFix"/>
<feColorMatrix in="SourceAlpha" type="matrix" values="0 0 0 0 0 0 0 0 0 0 0 0 0 0 0 0 0 0 127 0" result="hardAlpha"/>
<feOffset/>
<feGaussianBlur stdDeviation="2"/>
<feColorMatrix type="matrix" values="0 0 0 0 0.988235 0 0 0 0 0.988235 0 0 0 0 0.988235 0 0 0 1 0"/>
<feBlend mode="normal" in2="BackgroundImageFix" result="effect1_dropShadow_83_3396"/>
<feBlend mode="normal" in="SourceGraphic" in2="effect1_dropShadow_83_3396" result="shape"/>
</filter>
<filter id="filter_inner_glow" x="8" y="4" width="1774" height="531.906" filterUnits="userSpaceOnUse" color-interpolation-filters="sRGB">
<feFlood flood-opacity="0" result="BackgroundImageFix"/>
<feBlend mode="normal" in="SourceGraphic" in2="BackgroundImageFix" result="shape"/>
<feColorMatrix in="SourceAlpha" type="matrix" values="0 0 0 0 0 0 0 0 0 0 0 0 0 0 0 0 0 0 127 0" result="hardAlpha"/>
<feOffset dy="4"/>
<feGaussianBlur stdDeviation="100"/>
<feComposite in2="hardAlpha" operator="arithmetic" k2="-1" k3="1"/>
<feColorMatrix type="matrix" values="0 0 0 0 0.490196 0 0 0 0 0.494118 0 0 0 0 0.835294 0 0 0 1 0"/>
<feBlend mode="normal" in2="shape" result="effect1_innerShadow_83_3396"/>
</filter>
</defs>
</svg>
