<svg width="1801" height="744" viewBox="0 0 1801 744" fill="none" xmlns="http://www.w3.org/2000/svg">
<g id="Group 250">
<g id="Group 217">
<g id="Group" filter="url(#filter0_d_183_339)">
<g id="Rectangle 68">
<path id="Vector" d="M1792.95 7.7832H7.92969V537.331H1792.95V7.7832Z" stroke="white" stroke-width="7"/>
</g>
</g>
<g id="Group 96">
<path id="Path 76" d="M962.133 277.648H1590.08L1453.86 380.373" stroke="white" stroke-width="7" stroke-linejoin="round"/>
<path id="Path 77" d="M1590.07 277.639L1479.47 159.559" stroke="white" stroke-width="7"/>
</g>
<g id="Group 223">
<g id="Group 222">
<path id="Path 245" d="M351.26 262.6H308.452C307.92 262.6 307.411 262.812 307.035 263.189C306.659 263.567 306.448 264.079 306.448 264.612V285.623C306.448 286.157 306.659 286.669 307.035 287.046C307.411 287.423 307.92 287.635 308.452 287.635H325.15V313.706C320.527 314.798 315.775 315.231 311.032 314.993C298.805 314.993 281.717 310.504 281.717 272.784C281.717 235.063 299.51 230.126 316.209 230.126C324.588 229.847 332.946 231.131 340.858 233.915C341.151 233.978 341.454 233.974 341.746 233.905C342.038 233.835 342.31 233.701 342.543 233.512C342.777 233.323 342.965 233.084 343.094 232.813C343.224 232.541 343.292 232.244 343.292 231.943L348.071 211.633C348.074 211.325 348.002 211.022 347.86 210.749C347.719 210.476 347.512 210.243 347.26 210.069C345.637 208.912 335.836 203.396 311.032 203.396C282.455 203.396 253.141 215.617 253.141 274.275C253.141 332.932 286.699 341.706 314.983 341.706C328.221 342.018 341.272 338.533 352.607 331.661C352.833 331.482 353.012 331.249 353.125 330.983C353.238 330.717 353.283 330.426 353.256 330.138V264.612C353.256 264.08 353.046 263.569 352.672 263.192C352.298 262.815 351.79 262.602 351.26 262.6Z" fill="white"/>
<path id="Path 246" d="M571.864 210.427C571.866 210.163 571.817 209.901 571.718 209.657C571.619 209.412 571.473 209.19 571.288 209.002C571.104 208.814 570.884 208.665 570.641 208.563C570.399 208.46 570.139 208.407 569.876 208.406H545.778C545.515 208.407 545.254 208.46 545.012 208.563C544.769 208.665 544.549 208.814 544.363 209.001C544.178 209.189 544.031 209.411 543.931 209.656C543.832 209.901 543.781 210.162 543.782 210.427V257.198H506.215V210.427C506.217 210.163 506.167 209.901 506.068 209.657C505.969 209.412 505.823 209.19 505.639 209.002C505.454 208.814 505.234 208.665 504.992 208.563C504.75 208.46 504.49 208.407 504.227 208.406H480.129C479.598 208.411 479.092 208.626 478.719 209.004C478.347 209.383 478.139 209.894 478.141 210.427V337.07C478.139 337.334 478.188 337.596 478.287 337.841C478.386 338.086 478.532 338.309 478.716 338.497C478.901 338.686 479.121 338.836 479.363 338.939C479.605 339.042 479.865 339.096 480.129 339.098H504.227C504.49 339.096 504.75 339.042 504.993 338.939C505.235 338.836 505.455 338.686 505.639 338.497C505.824 338.309 505.97 338.086 506.068 337.841C506.167 337.596 506.217 337.334 506.215 337.07V282.901H543.782L543.717 337.07C543.715 337.604 543.924 338.118 544.298 338.498C544.672 338.878 545.181 339.094 545.713 339.098H569.876C570.14 339.096 570.4 339.042 570.642 338.939C570.884 338.836 571.104 338.686 571.289 338.497C571.473 338.309 571.619 338.086 571.718 337.841C571.817 337.596 571.866 337.334 571.864 337.07V210.427Z" fill="white"/>
<path id="Path 247" d="M396.734 227.047C396.704 223.966 395.766 220.964 394.04 218.417C392.313 215.87 389.875 213.894 387.032 212.736C384.189 211.578 381.068 211.291 378.063 211.911C375.058 212.531 372.302 214.029 370.144 216.218C367.985 218.408 366.52 221.189 365.932 224.213C365.345 227.237 365.661 230.367 366.842 233.211C368.023 236.054 370.016 238.483 372.569 240.191C375.122 241.9 378.121 242.811 381.189 242.812C383.241 242.803 385.271 242.388 387.163 241.591C389.056 240.794 390.773 239.63 392.217 238.166C393.66 236.702 394.803 234.966 395.578 233.058C396.353 231.15 396.746 229.107 396.734 227.047Z" fill="white"/>
<path id="Path 248" d="M394.994 310.357V251.903C394.995 251.639 394.944 251.377 394.845 251.133C394.745 250.888 394.598 250.666 394.413 250.478C394.227 250.29 394.007 250.141 393.764 250.039C393.522 249.937 393.261 249.884 392.998 249.883H369.03C368.468 249.935 367.945 250.193 367.561 250.608C367.176 251.022 366.957 251.565 366.945 252.131V335.881C366.945 338.325 368.471 339.075 370.45 339.075H392.097C394.475 339.075 395.051 337.902 395.051 335.816L394.994 310.357Z" fill="white"/>
<path id="Path 249" d="M663.472 250.07H639.545C639.282 250.072 639.022 250.127 638.78 250.23C638.537 250.333 638.318 250.483 638.133 250.671C637.948 250.86 637.802 251.083 637.704 251.328C637.605 251.573 637.555 251.835 637.557 252.099V314.195C633.19 317.08 628.083 318.631 622.856 318.659C614.231 318.659 611.943 314.732 611.943 306.251V252.099C611.945 251.835 611.895 251.573 611.797 251.328C611.698 251.083 611.552 250.86 611.368 250.671C611.183 250.483 610.963 250.333 610.721 250.23C610.479 250.127 610.218 250.072 609.955 250.07H585.68C585.147 250.075 584.638 250.291 584.264 250.671C583.89 251.051 583.681 251.564 583.684 252.099V310.349C583.684 335.532 597.663 341.699 616.892 341.699C627.003 341.417 636.849 338.393 645.387 332.949C645.591 334.682 645.883 336.403 646.263 338.106C646.437 338.426 646.691 338.695 647 338.888C647.308 339.081 647.661 339.19 648.024 339.206L663.44 339.141C663.97 339.136 664.478 338.922 664.852 338.543C665.226 338.165 665.435 337.653 665.435 337.12V252.099C665.438 251.834 665.388 251.571 665.288 251.326C665.189 251.08 665.043 250.857 664.857 250.668C664.672 250.48 664.451 250.33 664.208 250.227C663.964 250.125 663.703 250.071 663.44 250.07" fill="white"/>
<path id="Path 250" d="M728.848 247.226C720.836 247.177 712.956 249.278 706.024 253.312V210.427C706.026 210.163 705.976 209.901 705.878 209.657C705.779 209.412 705.633 209.19 705.448 209.002C705.263 208.814 705.043 208.665 704.801 208.563C704.559 208.46 704.299 208.407 704.036 208.406H679.865C679.335 208.411 678.828 208.626 678.455 209.004C678.083 209.383 677.875 209.894 677.877 210.427V337.069C677.875 337.334 677.925 337.597 678.024 337.842C678.124 338.088 678.27 338.311 678.455 338.5C678.641 338.688 678.862 338.838 679.105 338.941C679.348 339.043 679.609 339.097 679.873 339.098H696.644C697.006 339.095 697.36 338.993 697.669 338.804C697.978 338.614 698.229 338.344 698.397 338.022C698.88 336.103 699.219 334.151 699.411 332.181C707.514 338.65 717.66 341.986 728.004 341.583C749.968 341.583 762.569 330.397 762.569 291.357C762.569 252.318 742.447 247.218 728.856 247.218L728.848 247.226ZM719.42 318.568C714.508 318.429 709.714 317.027 705.497 314.494V274.436C709.3 272.257 713.509 270.887 717.862 270.412C726.479 269.638 734.771 272.253 734.771 292.881C734.771 314.633 731.023 318.951 719.42 318.576" fill="white"/>
<path id="Path 251" d="M464.293 249.866H446.215V225.882C446.215 224.978 445.753 224.521 444.706 224.521H420.008C419.05 224.521 418.539 224.945 418.539 225.866V250.648C418.539 250.648 406.19 253.638 405.354 253.907C404.938 254.029 404.572 254.283 404.312 254.631C404.051 254.979 403.91 255.403 403.91 255.838V271.39C403.909 271.654 403.96 271.916 404.06 272.161C404.159 272.405 404.306 272.628 404.491 272.815C404.677 273.003 404.897 273.152 405.14 273.254C405.383 273.356 405.643 273.41 405.906 273.411H418.539V310.886C418.539 338.716 438.012 341.445 451.1 341.445C455.965 341.295 460.789 340.498 465.445 339.074C465.797 338.924 466.094 338.67 466.297 338.345C466.501 338.02 466.599 337.641 466.581 337.257V320.149C466.575 319.618 466.363 319.11 465.99 318.733C465.618 318.356 465.114 318.139 464.585 318.129C463.53 318.129 460.836 318.56 458.094 318.56C449.209 318.56 446.207 314.414 446.207 309.045V273.419H464.285C464.548 273.418 464.808 273.365 465.051 273.262C465.294 273.16 465.514 273.011 465.699 272.824C465.885 272.636 466.031 272.414 466.131 272.169C466.231 271.924 466.282 271.663 466.281 271.398V251.887C466.282 251.622 466.231 251.361 466.131 251.116C466.031 250.871 465.885 250.649 465.699 250.461C465.514 250.274 465.294 250.125 465.051 250.023C464.808 249.92 464.548 249.867 464.285 249.866" fill="white"/>
</g>
</g>
</g>
<path id="BUILD WITH US" d="M942.93 626.04H971.73C978.63 626.04 983.97 627.93 987.75 631.71C989.13 633.15 990.21 634.83 990.99 636.75C991.83 638.67 992.25 640.86 992.25 643.32C992.25 646.98 991.26 649.98 989.28 652.32C987.3 654.66 984.51 656.34 980.91 657.36V657.63C982.95 658.11 984.81 658.8 986.49 659.7C988.23 660.6 989.73 661.74 990.99 663.12C992.25 664.44 993.21 666 993.87 667.8C994.59 669.54 994.95 671.52 994.95 673.74C994.95 676.44 994.5 678.9 993.6 681.12C992.7 683.28 991.44 685.17 989.82 686.79C987.9 688.77 985.53 690.3 982.71 691.38C979.89 692.46 976.68 693 973.08 693H942.93V626.04ZM970.47 654.57C974.43 654.57 977.49 653.67 979.65 651.87C981.87 650.01 982.98 647.37 982.98 643.95C982.98 640.77 981.96 638.31 979.92 636.57C977.94 634.83 975.15 633.96 971.55 633.96H952.11V654.57H970.47ZM972.54 684.9C977.04 684.9 980.4 683.79 982.62 681.57C984.6 679.71 985.59 677.19 985.59 674.01C985.59 669.99 984.3 666.99 981.72 665.01C979.2 663.03 975.96 662.04 972 662.04H952.11V684.9H972.54ZM1029.91 693.99C1026.13 693.99 1022.65 693.57 1019.47 692.73C1016.35 691.83 1013.65 690.48 1011.37 688.68C1009.09 686.82 1007.29 684.45 1005.97 681.57C1004.71 678.69 1004.08 675.24 1004.08 671.22V626.04H1013.26V670.41C1013.26 675.93 1014.7 679.95 1017.58 682.47C1020.52 684.93 1024.69 686.16 1030.09 686.16C1035.31 686.16 1039.36 684.93 1042.24 682.47C1045.12 679.95 1046.56 675.93 1046.56 670.41V626.04H1055.74V671.22C1055.74 675.24 1055.08 678.69 1053.76 681.57C1052.44 684.45 1050.61 686.82 1048.27 688.68C1045.99 690.48 1043.26 691.83 1040.08 692.73C1036.96 693.57 1033.57 693.99 1029.91 693.99ZM1068.71 626.04H1077.89V693H1068.71V626.04ZM1091.9 626.04H1101.08V684.63H1135.73V693H1091.9V626.04ZM1145.43 626.04H1170.18C1175.16 626.04 1179.51 626.85 1183.23 628.47C1187.01 630.09 1190.13 632.4 1192.59 635.4C1195.11 638.34 1196.97 641.88 1198.17 646.02C1199.43 650.16 1200.06 654.75 1200.06 659.79C1200.06 664.77 1199.4 669.3 1198.08 673.38C1196.82 677.46 1194.9 680.97 1192.32 683.91C1189.74 686.79 1186.56 689.04 1182.78 690.66C1179 692.22 1174.59 693 1169.55 693H1145.43V626.04ZM1169.19 684.99C1172.97 684.99 1176.21 684.42 1178.91 683.28C1181.61 682.08 1183.8 680.4 1185.48 678.24C1187.22 676.02 1188.48 673.35 1189.26 670.23C1190.1 667.11 1190.52 663.63 1190.52 659.79C1190.52 655.95 1190.13 652.44 1189.35 649.26C1188.63 646.08 1187.43 643.38 1185.75 641.16C1184.13 638.88 1182 637.14 1179.36 635.94C1176.72 634.68 1173.51 634.05 1169.73 634.05H1154.7V684.99H1169.19ZM1229.94 626.04H1239.57L1249.2 665.46C1249.62 667.14 1250.01 669 1250.37 671.04C1250.73 673.08 1251.06 675 1251.36 676.8C1251.66 678.9 1251.99 681.03 1252.35 683.19H1252.53C1252.89 680.97 1253.25 678.81 1253.61 676.71C1253.91 674.91 1254.27 672.99 1254.69 670.95C1255.11 668.91 1255.56 667.05 1256.04 665.37L1266.84 626.04H1276.56L1287 665.37C1287.42 667.05 1287.84 668.91 1288.26 670.95C1288.74 672.99 1289.13 674.91 1289.43 676.71C1289.79 678.81 1290.15 680.97 1290.51 683.19H1290.69C1291.05 681.03 1291.41 678.9 1291.77 676.8C1292.07 675 1292.4 673.08 1292.76 671.04C1293.18 669 1293.6 667.14 1294.02 665.46L1304.01 626.04H1313.46L1294.83 693H1285.92L1274.94 650.16C1274.52 648.66 1274.13 646.95 1273.77 645.03C1273.41 643.11 1273.08 641.28 1272.78 639.54C1272.42 637.56 1272.09 635.52 1271.79 633.42H1271.61C1271.25 635.52 1270.89 637.56 1270.53 639.54C1270.23 641.28 1269.87 643.11 1269.45 645.03C1269.09 646.95 1268.73 648.63 1268.37 650.07L1256.58 693H1247.4L1229.94 626.04ZM1322.27 626.04H1331.45V693H1322.27V626.04ZM1341.33 626.04H1394.61V634.14H1372.56V693H1363.29V634.14H1341.33V626.04ZM1404.36 626.04H1413.54V654.21H1448.1V626.04H1457.37V693H1448.1V661.68H1413.54V693H1404.36V626.04ZM1519.9 693.99C1516.12 693.99 1512.64 693.57 1509.46 692.73C1506.34 691.83 1503.64 690.48 1501.36 688.68C1499.08 686.82 1497.28 684.45 1495.96 681.57C1494.7 678.69 1494.07 675.24 1494.07 671.22V626.04H1503.25V670.41C1503.25 675.93 1504.69 679.95 1507.57 682.47C1510.51 684.93 1514.68 686.16 1520.08 686.16C1525.3 686.16 1529.35 684.93 1532.23 682.47C1535.11 679.95 1536.55 675.93 1536.55 670.41V626.04H1545.73V671.22C1545.73 675.24 1545.07 678.69 1543.75 681.57C1542.43 684.45 1540.6 686.82 1538.26 688.68C1535.98 690.48 1533.25 691.83 1530.07 692.73C1526.95 693.57 1523.56 693.99 1519.9 693.99ZM1583.96 694.35C1579.28 694.35 1575.17 693.75 1571.63 692.55C1568.15 691.35 1565.21 689.73 1562.81 687.69C1560.47 685.59 1558.67 683.13 1557.41 680.31C1556.15 677.49 1555.43 674.49 1555.25 671.31H1564.34C1564.88 676.41 1566.8 680.31 1570.1 683.01C1573.4 685.65 1578.11 686.97 1584.23 686.97C1586.45 686.97 1588.49 686.73 1590.35 686.25C1592.27 685.71 1593.89 684.96 1595.21 684C1596.59 682.98 1597.67 681.72 1598.45 680.22C1599.23 678.72 1599.62 676.95 1599.62 674.91C1599.62 672.75 1599.14 670.95 1598.18 669.51C1597.28 668.07 1595.96 666.87 1594.22 665.91C1592.54 664.95 1590.5 664.14 1588.1 663.48C1585.76 662.82 1583.12 662.16 1580.18 661.5C1577.18 660.9 1574.33 660.18 1571.63 659.34C1568.99 658.5 1566.65 657.39 1564.61 656.01C1562.57 654.57 1560.95 652.8 1559.75 650.7C1558.61 648.6 1558.04 645.93 1558.04 642.69C1558.04 639.87 1558.61 637.35 1559.75 635.13C1560.89 632.91 1562.48 631.05 1564.52 629.55C1566.56 627.99 1568.99 626.82 1571.81 626.04C1574.69 625.2 1577.84 624.78 1581.26 624.78C1585.4 624.78 1588.97 625.29 1591.97 626.31C1594.97 627.27 1597.49 628.62 1599.53 630.36C1601.63 632.1 1603.25 634.17 1604.39 636.57C1605.53 638.97 1606.31 641.61 1606.73 644.49H1597.82C1597.22 640.41 1595.51 637.32 1592.69 635.22C1589.87 633.06 1586.09 631.98 1581.35 631.98C1576.91 631.98 1573.37 632.85 1570.73 634.59C1568.09 636.33 1566.77 638.88 1566.77 642.24C1566.77 644.04 1567.19 645.57 1568.03 646.83C1568.93 648.03 1570.13 649.05 1571.63 649.89C1573.19 650.73 1575.02 651.45 1577.12 652.05C1579.28 652.59 1581.62 653.13 1584.14 653.67C1587.38 654.33 1590.47 655.08 1593.41 655.92C1596.41 656.76 1599.05 657.96 1601.33 659.52C1603.67 661.02 1605.5 662.97 1606.82 665.37C1608.2 667.77 1608.89 670.83 1608.89 674.55C1608.89 677.73 1608.26 680.55 1607 683.01C1605.8 685.47 1604.09 687.54 1601.87 689.22C1599.65 690.9 1597.01 692.16 1593.95 693C1590.89 693.9 1587.56 694.35 1583.96 694.35Z" fill="white"/>
</g>
<g id="inner_glow_filter" filter="url(#filter_inner_glow)">
<path id="Rectangle 68_2" d="M1782 4H8V531.906H1782V4Z" fill="white" fill-opacity="0.04"/>
</g>
<defs>
<filter id="filter0_d_183_339" x="0.429688" y="0.283203" width="1800.02" height="544.549" filterUnits="userSpaceOnUse" color-interpolation-filters="sRGB">
<feFlood flood-opacity="0" result="BackgroundImageFix"/>
<feColorMatrix in="SourceAlpha" type="matrix" values="0 0 0 0 0 0 0 0 0 0 0 0 0 0 0 0 0 0 127 0" result="hardAlpha"/>
<feOffset/>
<feGaussianBlur stdDeviation="2"/>
<feColorMatrix type="matrix" values="0 0 0 0 0.988235 0 0 0 0 0.988235 0 0 0 0 0.988235 0 0 0 1 0"/>
<feBlend mode="normal" in2="BackgroundImageFix" result="effect1_dropShadow_183_339"/>
<feBlend mode="normal" in="SourceGraphic" in2="effect1_dropShadow_183_339" result="shape"/>
</filter>
<filter id="filter_inner_glow" x="8" y="4" width="1774" height="531.906" filterUnits="userSpaceOnUse" color-interpolation-filters="sRGB">
<feFlood flood-opacity="0" result="BackgroundImageFix"/>
<feBlend mode="normal" in="SourceGraphic" in2="BackgroundImageFix" result="shape"/>
<feColorMatrix in="SourceAlpha" type="matrix" values="0 0 0 0 0 0 0 0 0 0 0 0 0 0 0 0 0 0 127 0" result="hardAlpha"/>
<feOffset dy="4"/>
<feGaussianBlur stdDeviation="100"/>
<feComposite in2="hardAlpha" operator="arithmetic" k2="-1" k3="1"/>
<feColorMatrix type="matrix" values="0 0 0 0 0.490196 0 0 0 0 0.494118 0 0 0 0 0.835294 0 0 0 1 0"/>
<feBlend mode="normal" in2="shape" result="effect1_innerShadow_83_3396"/>
</filter>
</defs>
</svg>
