<svg width="3670" height="3760" viewBox="0 0 3670 3760" fill="none" xmlns="http://www.w3.org/2000/svg">
<g id="Group 260">
<path id="Ellipse 60" d="M1834.51 3759.69C2847.68 3759.69 3669.01 2950.96 3669.01 1953.35C3669.01 955.729 2847.68 147 1834.51 147C821.337 147 0 955.729 0 1953.35C0 2950.96 821.337 3759.69 1834.51 3759.69Z" fill="url(#paint0_radial_473_164)"/>
<g id="Group 255">
<g id="Group 216">
<g id="Group 195">
<path id="Path 224" d="M3135.76 2315.13C3135.76 2173.7 3107.9 2033.65 3053.78 1902.99C2999.65 1772.32 2920.32 1653.6 2820.32 1553.59C2720.31 1453.59 2601.59 1374.26 2470.92 1320.14C2340.26 1266.01 2200.21 1238.16 2058.78 1238.16" stroke="#7D7ED5" stroke-width="11" stroke-miterlimit="10"/>
<path id="Path 225" d="M2058.78 1238.16C1971.37 1238.16 1884.82 1255.38 1804.06 1288.83C1723.31 1322.28 1649.93 1371.3 1588.12 1433.11C1463.3 1557.94 1393.17 1727.24 1393.17 1903.77" stroke="#7D7ED5" stroke-width="11" stroke-miterlimit="10"/>
<path id="Rectangle 105" d="M1803.97 1903.15H1392.98V2314.15H1803.97V1903.15Z" stroke="#7D7ED5" stroke-width="11" stroke-miterlimit="10"/>
<path id="Path 226" d="M1392.98 1903.15C1392.98 2012.26 1436.32 2116.89 1513.47 2194.04C1590.62 2271.19 1695.25 2314.53 1804.36 2314.53" stroke="#7D7ED5" stroke-width="11" stroke-miterlimit="10"/>
<path id="Rectangle 106" d="M2059.4 2060.54H1805.38V2314.56H2059.4V2060.54Z" stroke="#7D7ED5" stroke-width="11" stroke-miterlimit="10"/>
<path id="Path 227" d="M1805.38 2314.55C1872.81 2314.55 1937.49 2287.77 1985.17 2240.08C2032.85 2192.4 2059.64 2127.73 2059.64 2060.3" stroke="#7D7ED5" stroke-width="11" stroke-miterlimit="10"/>
<path id="Rectangle 107" d="M2058.75 1903.06H1901.75V2060.06H2058.75V1903.06Z" stroke="#7D7ED5" stroke-width="11" stroke-miterlimit="10"/>
<path id="Path 228" d="M2058.75 2060.06C2058.75 2018.38 2042.2 1978.41 2012.73 1948.94C1983.26 1919.47 1943.29 1902.92 1901.61 1902.92" stroke="#7D7ED5" stroke-width="11" stroke-miterlimit="10"/>
<path id="Rectangle 108" d="M1900.98 1904.33H1803.95V2001.35H1900.98V1904.33Z" stroke="#7D7ED5" stroke-width="11" stroke-miterlimit="10"/>
<path id="Path 229" d="M1900.97 1904.33C1875.22 1904.33 1850.51 1914.56 1832.3 1932.77C1814.09 1950.98 1803.86 1975.69 1803.86 2001.44" stroke="#7D7ED5" stroke-width="11" stroke-miterlimit="10"/>
<path id="Rectangle 109" d="M1865.21 2001.06H1805.24V2061.02H1865.21V2001.06Z" stroke="#7D7ED5" stroke-width="11" stroke-miterlimit="10"/>
<path id="Path 230" d="M1805.24 2001.06C1805.24 2016.97 1811.57 2032.24 1822.82 2043.5C1834.08 2054.76 1849.35 2061.08 1865.27 2061.08" stroke="#7D7ED5" stroke-width="11" stroke-miterlimit="10"/>
</g>
</g>
<g id="Group 218">
<g id="Group 195_2">
<path id="Path 224_2" d="M2310 4.99859C2086.75 4.9986 1865.69 46.7309 1659.44 127.812C1453.18 208.893 1265.77 327.736 1107.91 477.554C950.054 627.373 824.833 805.234 739.401 1000.98C653.969 1196.73 609.998 1406.53 610 1618.4" stroke="#676770" stroke-width="8" stroke-miterlimit="10" stroke-dasharray="22 22"/>
<path id="Path 225_2" d="M610 1618.4C610 1749.35 637.176 1879.01 689.978 1999.99C742.779 2120.97 820.171 2230.9 917.735 2323.49C1114.77 2510.49 1382.02 2615.55 1660.67 2615.55" stroke="#676770" stroke-width="8" stroke-miterlimit="10" stroke-dasharray="22 22"/>
<path id="Path 226_2" d="M1659.69 2615.84C1831.92 2615.84 1997.08 2550.91 2118.86 2435.33C2240.64 2319.76 2309.06 2163 2309.06 1999.55" stroke="#676770" stroke-width="8" stroke-miterlimit="10" stroke-dasharray="22 22"/>
<path id="Path 227_2" d="M2309.1 1998.02C2309.1 1897 2266.81 1800.11 2191.54 1728.68C2116.28 1657.25 2014.2 1617.12 1907.75 1617.12" stroke="#676770" stroke-width="8" stroke-miterlimit="10" stroke-dasharray="22 22"/>
<path id="Path 228_2" d="M1907.37 1618.45C1841.58 1618.45 1778.49 1643.25 1731.97 1687.4C1685.46 1731.55 1659.32 1791.42 1659.32 1853.86" stroke="#676770" stroke-width="8" stroke-miterlimit="10" stroke-dasharray="22 22"/>
<path id="Path 229_2" d="M1659.71 1853.64C1659.71 1892.22 1675.86 1929.23 1704.61 1956.51C1733.36 1983.8 1772.35 1999.13 1813.01 1999.13" stroke="#676770" stroke-width="8" stroke-miterlimit="10" stroke-dasharray="22 22"/>
<path id="Rectangle 109_2" d="M1814.24 1908.39L1814.24 1998.23L1908.9 1998.23L1908.9 1908.39L1814.24 1908.39Z" stroke="#676770" stroke-width="8" stroke-miterlimit="10" stroke-dasharray="22 22"/>
<path id="Path 230_2" d="M1814.24 1998.23C1839.37 1998.23 1863.47 1988.75 1881.24 1971.89C1899 1955.03 1908.99 1932.15 1908.99 1908.31" stroke="#676770" stroke-width="8" stroke-miterlimit="10" stroke-dasharray="22 22"/>
</g>
</g>
</g>
<path id="a" d="M1607.3 2415C1606.9 2414.4 1606.53 2413.57 1606.2 2412.5C1605.87 2411.37 1605.63 2410.03 1605.5 2408.5H1605.3C1603.57 2410.97 1601.47 2412.9 1599 2414.3C1596.6 2415.7 1593.33 2416.4 1589.2 2416.4C1586.6 2416.4 1584.17 2416.03 1581.9 2415.3C1579.7 2414.63 1577.77 2413.63 1576.1 2412.3C1574.5 2410.97 1573.23 2409.3 1572.3 2407.3C1571.43 2405.23 1571 2402.9 1571 2400.3C1571 2397.37 1571.53 2394.93 1572.6 2393C1573.73 2391.07 1575.23 2389.5 1577.1 2388.3C1578.97 2387.1 1581.17 2386.2 1583.7 2385.6C1586.23 2384.93 1588.97 2384.43 1591.9 2384.1C1596.63 2383.43 1600.03 2382.63 1602.1 2381.7C1604.23 2380.77 1605.3 2379.3 1605.3 2377.3C1605.3 2375.37 1604.67 2373.83 1603.4 2372.7C1602.13 2371.5 1600.13 2370.9 1597.4 2370.9C1594.4 2370.9 1592.13 2371.53 1590.6 2372.8C1589.13 2374.07 1588.3 2375.77 1588.1 2377.9H1573.6C1573.67 2375.63 1574.2 2373.43 1575.2 2371.3C1576.2 2369.17 1577.67 2367.3 1579.6 2365.7C1581.53 2364.03 1583.97 2362.73 1586.9 2361.8C1589.83 2360.8 1593.27 2360.3 1597.2 2360.3C1600.6 2360.3 1603.53 2360.57 1606 2361.1C1608.47 2361.57 1610.63 2362.37 1612.5 2363.5C1615.3 2365.1 1617.33 2367.27 1618.6 2370C1619.93 2372.67 1620.6 2375.8 1620.6 2379.4V2406.7C1620.6 2410.77 1621.27 2413.23 1622.6 2414.1V2415H1607.3ZM1594.1 2406.1C1597.63 2406.1 1600.43 2405.13 1602.5 2403.2C1604.63 2401.27 1605.7 2398.83 1605.7 2395.9V2389C1604.57 2389.73 1603.17 2390.33 1601.5 2390.8C1599.9 2391.2 1598.23 2391.6 1596.5 2392C1593.03 2392.73 1590.47 2393.63 1588.8 2394.7C1587.13 2395.77 1586.3 2397.47 1586.3 2399.8C1586.3 2402.13 1587.07 2403.77 1588.6 2404.7C1590.13 2405.63 1591.97 2406.1 1594.1 2406.1Z" fill="white"/>
<path id="b" d="M1969.7 2416.7C1966.1 2416.7 1962.87 2415.93 1960 2414.4C1957.2 2412.87 1955.03 2410.47 1953.5 2407.2H1953.3V2415H1938.2V2340.6H1953.9V2356.9C1953.9 2359.17 1953.83 2361.4 1953.7 2363.6C1953.63 2365.73 1953.53 2367.6 1953.4 2369.2H1953.7C1955.5 2366.47 1957.67 2364.3 1960.2 2362.7C1962.73 2361.1 1965.87 2360.3 1969.6 2360.3C1973.07 2360.3 1976.2 2361 1979 2362.4C1981.8 2363.8 1984.2 2365.77 1986.2 2368.3C1988.2 2370.77 1989.73 2373.73 1990.8 2377.2C1991.93 2380.6 1992.5 2384.33 1992.5 2388.4C1992.5 2392.8 1991.97 2396.77 1990.9 2400.3C1989.83 2403.77 1988.3 2406.73 1986.3 2409.2C1984.3 2411.6 1981.9 2413.47 1979.1 2414.8C1976.3 2416.07 1973.17 2416.7 1969.7 2416.7ZM1965.5 2404.1C1969.17 2404.1 1971.9 2402.67 1973.7 2399.8C1975.57 2396.93 1976.5 2393.1 1976.5 2388.3C1976.5 2383.5 1975.57 2379.63 1973.7 2376.7C1971.9 2373.7 1969.13 2372.2 1965.4 2372.2C1963.33 2372.2 1961.53 2372.63 1960 2373.5C1958.53 2374.3 1957.3 2375.43 1956.3 2376.9C1955.3 2378.3 1954.57 2380 1954.1 2382C1953.63 2384 1953.4 2386.13 1953.4 2388.4C1953.4 2393.07 1954.47 2396.87 1956.6 2399.8C1958.73 2402.67 1961.7 2404.1 1965.5 2404.1Z" fill="white"/>
</g>
<defs>
<radialGradient id="paint0_radial_473_164" cx="0" cy="0" r="1" gradientUnits="userSpaceOnUse" gradientTransform="translate(1834.51 1953.35) scale(1834.51 1806.35)">
<stop stop-color="#7D7ED5" stop-opacity="0.341"/>
<stop offset="1" stop-color="#6B4964" stop-opacity="0"/>
</radialGradient>
</defs>
</svg>
