<svg width="1796" height="739" viewBox="0 0 1796 739" fill="none" xmlns="http://www.w3.org/2000/svg">
<g id="Group 99">
<g id="Group" filter="url(#filter0_d_91_3956)">
<g id="Rectangle 68">
<path id="Vector" d="M1784.63 8.39551H7.67773V533.436H1784.63V8.39551Z" stroke="white" stroke-width="7"/>
</g>
</g>
<path id="STORE" d="M293.354 312.398C285.854 312.398 279.104 311.548 273.104 309.848C267.104 308.148 261.954 305.698 257.654 302.498C253.354 299.298 250.004 295.348 247.604 290.648C245.304 285.848 244.054 280.448 243.854 274.448H269.654C270.354 280.548 272.654 284.998 276.554 287.798C280.554 290.598 286.154 291.998 293.354 291.998C295.854 291.998 298.254 291.748 300.554 291.248C302.854 290.748 304.904 289.998 306.704 288.998C308.504 287.898 309.904 286.548 310.904 284.948C312.004 283.248 312.554 281.248 312.554 278.948C312.554 276.548 311.954 274.548 310.754 272.948C309.654 271.348 308.004 269.998 305.804 268.898C303.604 267.798 300.904 266.848 297.704 266.048C294.504 265.148 290.904 264.248 286.904 263.348C281.504 262.148 276.404 260.798 271.604 259.298C266.804 257.798 262.604 255.848 259.004 253.448C255.404 250.948 252.554 247.848 250.454 244.148C248.454 240.348 247.454 235.548 247.454 229.748C247.454 223.948 248.554 218.948 250.754 214.748C252.954 210.548 256.004 207.098 259.904 204.398C263.804 201.598 268.404 199.548 273.704 198.248C279.004 196.848 284.754 196.148 290.954 196.148C297.054 196.148 302.704 196.848 307.904 198.248C313.104 199.648 317.604 201.748 321.404 204.548C325.204 207.348 328.254 210.848 330.554 215.048C332.854 219.148 334.204 223.948 334.604 229.448H309.554C308.854 225.048 306.854 221.648 303.554 219.248C300.254 216.848 295.804 215.648 290.204 215.648C284.904 215.648 280.654 216.698 277.454 218.798C274.254 220.898 272.654 223.698 272.654 227.198C272.654 229.398 273.254 231.198 274.454 232.598C275.654 233.998 277.404 235.248 279.704 236.348C282.004 237.348 284.804 238.248 288.104 239.048C291.504 239.848 295.404 240.748 299.804 241.748C304.804 242.848 309.604 244.198 314.204 245.798C318.904 247.298 323.004 249.348 326.504 251.948C330.104 254.548 332.954 257.798 335.054 261.698C337.254 265.598 338.354 270.498 338.354 276.398C338.354 282.198 337.204 287.348 334.904 291.848C332.604 296.248 329.404 299.998 325.304 303.098C321.304 306.098 316.554 308.398 311.054 309.998C305.654 311.598 299.754 312.398 293.354 312.398ZM343.909 198.098H436.009V219.848H402.709V309.698H377.059V219.848H343.909V198.098ZM495.514 312.398C487.014 312.398 479.364 310.948 472.564 308.048C465.764 305.148 459.964 301.098 455.164 295.898C450.364 290.698 446.664 284.548 444.064 277.448C441.564 270.348 440.314 262.648 440.314 254.348C440.314 245.948 441.564 238.198 444.064 231.098C446.664 223.998 450.364 217.898 455.164 212.798C459.964 207.598 465.764 203.548 472.564 200.648C479.364 197.648 487.014 196.148 495.514 196.148C503.914 196.148 511.514 197.648 518.314 200.648C525.114 203.548 530.914 207.598 535.714 212.798C540.514 217.898 544.164 223.998 546.664 231.098C549.264 238.198 550.564 245.948 550.564 254.348C550.564 262.648 549.264 270.348 546.664 277.448C544.164 284.548 540.514 290.698 535.714 295.898C530.914 301.098 525.114 305.148 518.314 308.048C511.514 310.948 503.914 312.398 495.514 312.398ZM495.664 291.398C500.464 291.398 504.664 290.448 508.264 288.548C511.864 286.648 514.864 284.048 517.264 280.748C519.664 277.448 521.464 273.548 522.664 269.048C523.864 264.548 524.464 259.648 524.464 254.348C524.464 249.048 523.864 244.148 522.664 239.648C521.464 235.048 519.664 231.048 517.264 227.648C514.864 224.248 511.864 221.598 508.264 219.698C504.664 217.798 500.464 216.848 495.664 216.848C490.864 216.848 486.614 217.798 482.914 219.698C479.314 221.598 476.264 224.248 473.764 227.648C471.364 231.048 469.514 235.048 468.214 239.648C467.014 244.148 466.414 249.048 466.414 254.348C466.414 259.648 467.014 264.548 468.214 269.048C469.514 273.548 471.364 277.448 473.764 280.748C476.264 284.048 479.314 286.648 482.914 288.548C486.614 290.448 490.864 291.398 495.664 291.398ZM564.788 198.098H617.888C623.288 198.098 628.288 198.798 632.888 200.198C637.588 201.598 641.638 203.698 645.038 206.498C648.438 209.198 651.088 212.548 652.988 216.548C654.988 220.448 655.988 224.948 655.988 230.048C655.988 236.648 654.338 242.248 651.038 246.848C647.738 251.448 642.488 254.898 635.288 257.198V257.648C640.888 259.348 644.988 261.898 647.588 265.298C650.288 268.598 652.038 273.248 652.838 279.248C653.338 283.048 653.688 286.648 653.888 290.048C654.188 293.348 654.438 296.348 654.638 299.048C654.938 301.648 655.288 303.798 655.688 305.498C656.088 307.098 656.738 308.098 657.638 308.498V309.698H632.438C631.638 309.298 631.038 308.298 630.638 306.698C630.338 305.098 630.038 303.148 629.738 300.848C629.538 298.448 629.338 295.798 629.138 292.898C628.938 289.998 628.688 286.998 628.388 283.898C627.688 278.298 625.838 274.098 622.838 271.298C619.938 268.498 615.388 267.098 609.188 267.098H590.288V309.698H564.788V198.098ZM590.288 248.198H612.938C618.638 248.198 622.988 246.898 625.988 244.298C628.988 241.598 630.488 237.998 630.488 233.498C630.488 228.898 629.088 225.248 626.288 222.548C623.588 219.748 619.388 218.348 613.688 218.348H590.288V248.198ZM672.014 198.098H755.714V219.398H697.514V241.598H747.914V261.848H697.514V287.798H756.764V309.698H672.014V198.098Z" fill="#E4E4E4"/>
<g id="Group 96">
<path id="Path 76" d="M957.574 275.968H1582.68L1447.08 377.817" stroke="white" stroke-width="7" stroke-linejoin="round"/>
<path id="Path 77" d="M1582.67 275.959L1472.58 158.883" stroke="white" stroke-width="7"/>
</g>
<path id="BRAND WITH US" d="M881.93 622.04H910.73C917.63 622.04 922.97 623.93 926.75 627.71C928.13 629.15 929.21 630.83 929.99 632.75C930.83 634.67 931.25 636.86 931.25 639.32C931.25 642.98 930.26 645.98 928.28 648.32C926.3 650.66 923.51 652.34 919.91 653.36V653.63C921.95 654.11 923.81 654.8 925.49 655.7C927.23 656.6 928.73 657.74 929.99 659.12C931.25 660.44 932.21 662 932.87 663.8C933.59 665.54 933.95 667.52 933.95 669.74C933.95 672.44 933.5 674.9 932.6 677.12C931.7 679.28 930.44 681.17 928.82 682.79C926.9 684.77 924.53 686.3 921.71 687.38C918.89 688.46 915.68 689 912.08 689H881.93V622.04ZM909.47 650.57C913.43 650.57 916.49 649.67 918.65 647.87C920.87 646.01 921.98 643.37 921.98 639.95C921.98 636.77 920.96 634.31 918.92 632.57C916.94 630.83 914.15 629.96 910.55 629.96H891.11V650.57H909.47ZM911.54 680.9C916.04 680.9 919.4 679.79 921.62 677.57C923.6 675.71 924.59 673.19 924.59 670.01C924.59 665.99 923.3 662.99 920.72 661.01C918.2 659.03 914.96 658.04 911 658.04H891.11V680.9H911.54ZM944.157 622.04H975.477C978.477 622.04 981.207 622.49 983.667 623.39C986.127 624.23 988.227 625.46 989.967 627.08C991.767 628.7 993.147 630.65 994.107 632.93C995.067 635.21 995.547 637.73 995.547 640.49C995.547 644.57 994.617 648.05 992.757 650.93C990.897 653.75 987.747 655.85 983.307 657.23V657.5C985.167 658.04 986.727 658.76 987.987 659.66C989.247 660.56 990.267 661.67 991.047 662.99C991.827 664.25 992.397 665.78 992.757 667.58C993.177 669.38 993.477 671.48 993.657 673.88C993.837 676.52 994.047 678.74 994.287 680.54C994.527 682.28 994.767 683.72 995.007 684.86C995.247 685.94 995.487 686.78 995.727 687.38C996.027 687.92 996.357 688.31 996.717 688.55V689H986.907C986.547 688.7 986.247 688.25 986.007 687.65C985.767 687.05 985.557 686.18 985.377 685.04C985.197 683.9 985.047 682.46 984.927 680.72C984.807 678.92 984.657 676.67 984.477 673.97C984.177 669.23 982.977 665.9 980.877 663.98C978.777 662.06 975.537 661.1 971.157 661.1H953.337V689H944.157V622.04ZM953.337 653.72H972.507C977.067 653.72 980.457 652.67 982.677 650.57C984.957 648.41 986.097 645.5 986.097 641.84C986.097 637.88 985.077 634.91 983.037 632.93C981.057 630.95 977.697 629.96 972.957 629.96H953.337V653.72ZM1026.43 622.04H1036.69L1061.35 689H1051.27L1044.61 669.47H1018.24L1011.4 689H1001.95L1026.43 622.04ZM1020.76 662.27H1042.18L1035.79 643.55C1035.19 641.93 1034.65 640.28 1034.17 638.6C1033.69 636.92 1033.27 635.39 1032.91 634.01C1032.49 632.45 1032.1 630.89 1031.74 629.33H1031.47C1031.05 630.89 1030.63 632.48 1030.21 634.1C1029.79 635.48 1029.34 637.01 1028.86 638.69C1028.38 640.37 1027.87 641.99 1027.33 643.55L1020.76 662.27ZM1070.02 622.04H1079.65L1107.1 663.98C1107.94 665.24 1108.78 666.65 1109.62 668.21C1110.52 669.71 1111.33 671.15 1112.05 672.53C1112.89 674.09 1113.73 675.68 1114.57 677.3H1114.84C1114.72 675.62 1114.6 673.94 1114.48 672.26C1114.36 670.82 1114.27 669.26 1114.21 667.58C1114.21 665.9 1114.21 664.37 1114.21 662.99V622.04H1122.85V689H1113.31L1085.95 647.06C1085.11 645.8 1084.24 644.42 1083.34 642.92C1082.5 641.42 1081.69 639.98 1080.91 638.6C1080.01 637.04 1079.14 635.45 1078.3 633.83H1078.12C1078.18 635.51 1078.27 637.19 1078.39 638.87C1078.45 640.31 1078.51 641.84 1078.57 643.46C1078.63 645.08 1078.66 646.58 1078.66 647.96V689H1070.02V622.04ZM1136.72 622.04H1161.47C1166.45 622.04 1170.8 622.85 1174.52 624.47C1178.3 626.09 1181.42 628.4 1183.88 631.4C1186.4 634.34 1188.26 637.88 1189.46 642.02C1190.72 646.16 1191.35 650.75 1191.35 655.79C1191.35 660.77 1190.69 665.3 1189.37 669.38C1188.11 673.46 1186.19 676.97 1183.61 679.91C1181.03 682.79 1177.85 685.04 1174.07 686.66C1170.29 688.22 1165.88 689 1160.84 689H1136.72V622.04ZM1160.48 680.99C1164.26 680.99 1167.5 680.42 1170.2 679.28C1172.9 678.08 1175.09 676.4 1176.77 674.24C1178.51 672.02 1179.77 669.35 1180.55 666.23C1181.39 663.11 1181.81 659.63 1181.81 655.79C1181.81 651.95 1181.42 648.44 1180.64 645.26C1179.92 642.08 1178.72 639.38 1177.04 637.16C1175.42 634.88 1173.29 633.14 1170.65 631.94C1168.01 630.68 1164.8 630.05 1161.02 630.05H1145.99V680.99H1160.48ZM1221.24 622.04H1230.87L1240.5 661.46C1240.92 663.14 1241.31 665 1241.67 667.04C1242.03 669.08 1242.36 671 1242.66 672.8C1242.96 674.9 1243.29 677.03 1243.65 679.19H1243.83C1244.19 676.97 1244.55 674.81 1244.91 672.71C1245.21 670.91 1245.57 668.99 1245.99 666.95C1246.41 664.91 1246.86 663.05 1247.34 661.37L1258.14 622.04H1267.86L1278.3 661.37C1278.72 663.05 1279.14 664.91 1279.56 666.95C1280.04 668.99 1280.43 670.91 1280.73 672.71C1281.09 674.81 1281.45 676.97 1281.81 679.19H1281.99C1282.35 677.03 1282.71 674.9 1283.07 672.8C1283.37 671 1283.7 669.08 1284.06 667.04C1284.48 665 1284.9 663.14 1285.32 661.46L1295.31 622.04H1304.76L1286.13 689H1277.22L1266.24 646.16C1265.82 644.66 1265.43 642.95 1265.07 641.03C1264.71 639.11 1264.38 637.28 1264.08 635.54C1263.72 633.56 1263.39 631.52 1263.09 629.42H1262.91C1262.55 631.52 1262.19 633.56 1261.83 635.54C1261.53 637.28 1261.17 639.11 1260.75 641.03C1260.39 642.95 1260.03 644.63 1259.67 646.07L1247.88 689H1238.7L1221.24 622.04ZM1313.57 622.04H1322.75V689H1313.57V622.04ZM1332.62 622.04H1385.9V630.14H1363.85V689H1354.58V630.14H1332.62V622.04ZM1395.65 622.04H1404.83V650.21H1439.39V622.04H1448.66V689H1439.39V657.68H1404.83V689H1395.65V622.04ZM1511.19 689.99C1507.41 689.99 1503.93 689.57 1500.75 688.73C1497.63 687.83 1494.93 686.48 1492.65 684.68C1490.37 682.82 1488.57 680.45 1487.25 677.57C1485.99 674.69 1485.36 671.24 1485.36 667.22V622.04H1494.54V666.41C1494.54 671.93 1495.98 675.95 1498.86 678.47C1501.8 680.93 1505.97 682.16 1511.37 682.16C1516.59 682.16 1520.64 680.93 1523.52 678.47C1526.4 675.95 1527.84 671.93 1527.84 666.41V622.04H1537.02V667.22C1537.02 671.24 1536.36 674.69 1535.04 677.57C1533.72 680.45 1531.89 682.82 1529.55 684.68C1527.27 686.48 1524.54 687.83 1521.36 688.73C1518.24 689.57 1514.85 689.99 1511.19 689.99ZM1575.26 690.35C1570.58 690.35 1566.47 689.75 1562.93 688.55C1559.45 687.35 1556.51 685.73 1554.11 683.69C1551.77 681.59 1549.97 679.13 1548.71 676.31C1547.45 673.49 1546.73 670.49 1546.55 667.31H1555.64C1556.18 672.41 1558.1 676.31 1561.4 679.01C1564.7 681.65 1569.41 682.97 1575.53 682.97C1577.75 682.97 1579.79 682.73 1581.65 682.25C1583.57 681.71 1585.19 680.96 1586.51 680C1587.89 678.98 1588.97 677.72 1589.75 676.22C1590.53 674.72 1590.92 672.95 1590.92 670.91C1590.92 668.75 1590.44 666.95 1589.48 665.51C1588.58 664.07 1587.26 662.87 1585.52 661.91C1583.84 660.95 1581.8 660.14 1579.4 659.48C1577.06 658.82 1574.42 658.16 1571.48 657.5C1568.48 656.9 1565.63 656.18 1562.93 655.34C1560.29 654.5 1557.95 653.39 1555.91 652.01C1553.87 650.57 1552.25 648.8 1551.05 646.7C1549.91 644.6 1549.34 641.93 1549.34 638.69C1549.34 635.87 1549.91 633.35 1551.05 631.13C1552.19 628.91 1553.78 627.05 1555.82 625.55C1557.86 623.99 1560.29 622.82 1563.11 622.04C1565.99 621.2 1569.14 620.78 1572.56 620.78C1576.7 620.78 1580.27 621.29 1583.27 622.31C1586.27 623.27 1588.79 624.62 1590.83 626.36C1592.93 628.1 1594.55 630.17 1595.69 632.57C1596.83 634.97 1597.61 637.61 1598.03 640.49H1589.12C1588.52 636.41 1586.81 633.32 1583.99 631.22C1581.17 629.06 1577.39 627.98 1572.65 627.98C1568.21 627.98 1564.67 628.85 1562.03 630.59C1559.39 632.33 1558.07 634.88 1558.07 638.24C1558.07 640.04 1558.49 641.57 1559.33 642.83C1560.23 644.03 1561.43 645.05 1562.93 645.89C1564.49 646.73 1566.32 647.45 1568.42 648.05C1570.58 648.59 1572.92 649.13 1575.44 649.67C1578.68 650.33 1581.77 651.08 1584.71 651.92C1587.71 652.76 1590.35 653.96 1592.63 655.52C1594.97 657.02 1596.8 658.97 1598.12 661.37C1599.5 663.77 1600.19 666.83 1600.19 670.55C1600.19 673.73 1599.56 676.55 1598.3 679.01C1597.1 681.47 1595.39 683.54 1593.17 685.22C1590.95 686.9 1588.31 688.16 1585.25 689C1582.19 689.9 1578.86 690.35 1575.26 690.35Z" fill="white"/>
</g>
<g id="inner_glow_filter" filter="url(#filter_inner_glow)">
<path id="Rectangle 68_2" d="M1782 4H8V531.906H1782V4Z" fill="white" fill-opacity="0.04"/>
</g>
<defs>
<filter id="filter0_d_91_3956" x="0.177734" y="0.895508" width="1791.95" height="540.041" filterUnits="userSpaceOnUse" color-interpolation-filters="sRGB">
<feFlood flood-opacity="0" result="BackgroundImageFix"/>
<feColorMatrix in="SourceAlpha" type="matrix" values="0 0 0 0 0 0 0 0 0 0 0 0 0 0 0 0 0 0 127 0" result="hardAlpha"/>
<feOffset/>
<feGaussianBlur stdDeviation="2"/>
<feColorMatrix type="matrix" values="0 0 0 0 0.988235 0 0 0 0 0.988235 0 0 0 0 0.988235 0 0 0 1 0"/>
<feBlend mode="normal" in2="BackgroundImageFix" result="effect1_dropShadow_91_3956"/>
<feBlend mode="normal" in="SourceGraphic" in2="effect1_dropShadow_91_3956" result="shape"/>
</filter>
<filter id="filter_inner_glow" x="8" y="4" width="1774" height="531.906" filterUnits="userSpaceOnUse" color-interpolation-filters="sRGB">
<feFlood flood-opacity="0" result="BackgroundImageFix"/>
<feBlend mode="normal" in="SourceGraphic" in2="BackgroundImageFix" result="shape"/>
<feColorMatrix in="SourceAlpha" type="matrix" values="0 0 0 0 0 0 0 0 0 0 0 0 0 0 0 0 0 0 127 0" result="hardAlpha"/>
<feOffset dy="4"/>
<feGaussianBlur stdDeviation="100"/>
<feComposite in2="hardAlpha" operator="arithmetic" k2="-1" k3="1"/>
<feColorMatrix type="matrix" values="0 0 0 0 0.490196 0 0 0 0 0.494118 0 0 0 0 0.835294 0 0 0 1 0"/>
<feBlend mode="normal" in2="shape" result="effect1_innerShadow_83_3396"/>
</filter>
</defs>
</svg>
